# xmcd
#
# Track frame offsets: 
#        150
#        7635
#        20901
#        41603
#        58670
#        71776
#        92083
#        99743
#        109731
#        123747
#        141360
#        159129
#        172215
#        184195
#        194824
#        217989
#        229047
#        248025
#        257671
#        265632
#        277310
#        298465
#
# Disc length: 4183 seconds
#
# Revision: 4
# Processed by: cddbd v1.5.1PL2 Copyright (c) Steve Scherf et al.
# Submitted via: ExactAudioCopy v0.95b4
#
DISCID=56105516
DTITLE=AG Geige - Yachtclub and Buchteln
DYEAR=1900
DGENRE=
TTITLE0=Ansage Duett 23. Maerz 1990
TTITLE1=Eine Frikadelle
TTITLE2=Glueckliche Reise
TTITLE3=Papagei der jungen Leute
TTITLE4=Elektrische Banane
TTITLE5=America
TTITLE6=Melodie and Harmonie
TTITLE7=Schnitz
TTITLE8=Die vier Soehne der Frau Fanghaenel
TTITLE9=Fruehstart erlaubt
TTITLE10=Beklagenswertes Los einer Waise
TTITLE11=Die Waldschleiereule
TTITLE12=Zick-Zack
TTITLE13=Zwoelf Trombonen
TTITLE14=Yachtclub and Buchteln
TTITLE15=Stadt-Elegie
TTITLE16=Bruder and Schwester
TTITLE17=Fischleim
TTITLE18=Astronauten
TTITLE19=Nasenwalzer
TTITLE20=Kosmonauten
TTITLE21=CD-Rom MAC Track
EXTD=
EXTT0=
EXTT1=
EXTT2=
EXTT3=
EXTT4=
EXTT5=
EXTT6=
EXTT7=
EXTT8=
EXTT9=
EXTT10=
EXTT11=
EXTT12=
EXTT13=
EXTT14=
EXTT15=
EXTT16=
EXTT17=
EXTT18=
EXTT19=
EXTT20=
EXTT21=
PLAYORDER=
